<svg width="512" height="408" xmlns="http://www.w3.org/2000/svg">
 <defs>
  <linearGradient y2="0.896924" y1="0.026466" x2="1.022422" x1="0.148592" id="bs-logo-a">
   <stop stop-color="#9013fe"/>
   <stop stop-color="#6610f2" offset="1"/>
  </linearGradient>
  <filter id="svg_3_blur">
   <feGaussianBlur stdDeviation="1" in="SourceGraphic"/>
  </filter>
 </defs>
 <g>
  <title>background</title>
  <rect fill="none" id="canvas_background" height="402" width="582" y="-1" x="-1"/>
 </g>
 <g>
  <title>Layer 1</title>
  <path id="svg_1" d="m-331.688344,33.808842c-1.630125,-30.595586 34.841813,-58.80882 84.140438,-58.80882l505.158188,0c49.298625,0 85.770563,28.213233 84.140438,58.80882c-1.566,29.390072 0.467438,67.461392 15.12675,98.50367c14.706563,31.138233 39.506063,50.820217 80.1225,53.349261l0,28.676469c-40.616438,2.529044 -65.415938,22.211028 -80.1225,53.349261c-14.659313,31.042277 -16.69275,69.113598 -15.12675,98.504773c1.630125,30.594483 -34.841813,58.807717 -84.140438,58.807717l-505.158188,0c-49.298625,0 -85.770563,-28.213233 -84.13875,-58.807717c1.564313,-29.391174 -0.469125,-67.462495 -15.130125,-98.504773c-14.704875,-31.138233 -39.565125,-50.820217 -80.18325,-53.349261l0,-28.676469c40.616438,-2.529044 65.478375,-22.211028 80.18325,-53.349261c14.661,-31.042277 16.694438,-69.113598 15.128438,-98.50367z" fill="url(#bs-logo-a)"/>
  <text filter="url(#svg_3_blur)" font-style="normal" font-weight="bold" transform="matrix(13.1346, 0, 0, 12.6391, -1535.04, -2321.38)" xml:space="preserve" text-anchor="start" font-family="Helvetica, Arial, sans-serif" font-size="24" id="svg_3" y="205.475105" x="121.469356" stroke-width="0" fill="#ffffff">Д</text>
 </g>
</svg>